<svg xmlns="http://www.w3.org/2000/svg" version="1.1" xmlns:xlink="http://www.w3.org/1999/xlink" xmlns:svgjs="http://svgjs.dev/svgjs" width="1000" height="1000" viewBox="0 0 1000 1000"><rect width="1000" height="1000" fill="#ffffff"></rect><g transform="matrix(0.7,0,0,0.7,149.57575757575756,383.1708890003629)"><svg viewBox="0 0 396 132" data-background-color="#ffffff" preserveAspectRatio="xMidYMid meet" height="333" width="1000" xmlns="http://www.w3.org/2000/svg" xmlns:xlink="http://www.w3.org/1999/xlink"><g id="tight-bounds" transform="matrix(1,0,0,1,0.2400000000000091,0.15805513492966838)"><svg viewBox="0 0 395.52 131.68363684458566" height="131.68363684458566" width="395.52"><g><svg viewBox="0 0 672.4001815366591 223.86757008421043" height="131.68363684458566" width="395.52"><g transform="matrix(1,0,0,1,276.88018153665917,55.794436429318736)"><svg viewBox="0 0 395.52 112.27869722557296" height="112.27869722557296" width="395.52"><g><svg viewBox="0 0 395.52 112.27869722557296" height="112.27869722557296" width="395.52"><g><svg viewBox="0 0 395.52 112.27869722557296" height="112.27869722557296" width="395.52"><g transform="matrix(1,0,0,1,0,0)"><svg width="395.52" viewBox="4.55 -35 124.33999999999999 35.3" height="112.27869722557296" data-palette-color="#7a26c1"><path d="M14.2 0L4.55 0 4.55-35 14.55-35Q19.9-35 22.55-32.68 25.2-30.35 25.2-26.05L25.2-26.05Q25.2-23.15 23.3-21.25 21.4-19.35 18.15-18.95L18.15-18.95Q22.15-18.35 24.38-16.1 26.6-13.85 26.6-10.5L26.6-10.5Q26.6-5.75 23.33-2.88 20.05 0 14.2 0L14.2 0ZM8.45-17.15L8.45-3.25 15.4-3.25Q18.7-3.25 20.7-5.25 22.7-7.25 22.7-10.25 22.7-13.25 20.58-15.2 18.45-17.15 14.35-17.15L14.35-17.15 8.45-17.15ZM14.8-31.75L14.8-31.75 8.45-31.75 8.45-20.35 14.3-20.35Q17.05-20.35 19.18-21.88 21.3-23.4 21.3-26.1L21.3-26.1Q21.3-31.55 14.8-31.75ZM54.92-3.03Q51.85 0.3 45.95 0.3 40.05 0.3 36.97-3.03 33.9-6.35 33.9-12.9L33.9-12.9 33.9-35 37.7-35 37.7-12.3Q37.7-7.85 39.82-5.4 41.95-2.95 45.87-2.95 49.8-2.95 52-5.38 54.2-7.8 54.2-12.3L54.2-12.3 54.2-35 58-35 58-12.9Q58-6.35 54.92-3.03ZM70.84-35L70.84 0 67.09 0 67.09-35 70.84-35ZM98.69-3.25L98.69 0 79.94 0 79.94-35 83.69-35 83.69-3.25 98.69-3.25ZM128.89-18.75L128.89-18.75Q128.89-10.3 123.99-5.15 119.09 0 110.89 0L110.89 0 103.59 0 103.59-35 112.44-35Q119.89-35 124.39-30.45 128.89-25.9 128.89-18.75ZM124.84-19.15L124.84-19.15Q124.84-25.05 121.24-28.4 117.64-31.75 112.64-31.75L112.64-31.75 107.64-31.75 107.64-3.25 111.34-3.25Q116.99-3.25 120.92-7.5 124.84-11.75 124.84-19.15Z" opacity="1" transform="matrix(1,0,0,1,0,0)" fill="#000000" class="undefined-text-0" data-fill-palette-color="primary" id="text-0"></path></svg></g></svg></g></svg></g></svg></g><g><svg viewBox="0 0 223.86757008421043 223.86757008421043" height="223.86757008421043" width="223.86757008421043"><g><svg></svg></g><g id="icon-0"><svg viewBox="0 0 223.86757008421043 223.86757008421043" height="223.86757008421043" width="223.86757008421043"><g><path d="M0 111.934c0-61.819 50.114-111.934 111.934-111.934 61.819 0 111.934 50.114 111.934 111.934 0 61.819-50.114 111.934-111.934 111.934-61.819 0-111.934-50.114-111.934-111.934zM111.934 213.742c56.227 0 101.808-45.581 101.808-101.808 0-56.227-45.581-101.808-101.808-101.809-56.227 0-101.808 45.581-101.809 101.809 0 56.227 45.581 101.808 101.809 101.808z" data-fill-palette-color="accent" fill="#000000" stroke="transparent"></path></g><g transform="matrix(1,0,0,1,50.3369392010253,62.39346087690576)"><svg viewBox="0 0 123.19369168215982 99.0806483303989" height="99.0806483303989" width="123.19369168215982"><g><svg xmlns="http://www.w3.org/2000/svg" xmlns:xlink="http://www.w3.org/1999/xlink" version="1.1" x="0" y="0" viewBox="0 9.786 100.00034525290006 80.42699999999999" enable-background="new 0 0 100 100" xml:space="preserve" width="123.19369168215982" height="99.0806483303989" class="icon-gn-0" data-fill-palette-color="accent" id="gn-0"><path d="M49.942 52.994c13.552-0.488 27.103-0.977 40.653-1.465-2.527-4.177-3.159-7.831-7.989-8.461-7.229-0.94-14.458-1.883-21.688-2.826-14.023-1.827-28.05-3.654-42.075-5.48C20.101 36.792 39.724 53.361 49.942 52.994z" fill="#000000" data-fill-palette-color="accent"></path><path d="M0 9.786c4.391 7.257 26.615 23.072 32.953 23.886 17.33 2.231 34.657 4.46 51.986 6.688-3.393-5.607-4.18-9.35-10.312-10.959-8.904-2.341-17.812-4.683-26.717-7.023C31.94 18.182 15.97 13.984 0 9.786z" fill="#000000" data-fill-palette-color="accent"></path><path d="M63.108 66.207c10.413-2.219 20.826-4.439 31.241-6.66-2.028-3.346-2.034-5.359-5.827-5.189-6.158 0.273-12.314 0.549-18.471 0.822-11.343 0.506-22.686 1.014-34.028 1.518C37.298 58.064 54.94 67.947 63.108 66.207z" fill="#000000" data-fill-palette-color="accent"></path><path d="M87.682 90.213c5.725-3.719 7.262-7.721 10.519-13.807 3.651-6.824 1.257-7.844-2.821-14.596-0.417-0.688-5.842 0.232-6.453 0.904-0.745 0.818-0.248 5.455-0.294 6.496C88.315 76.211 87.998 83.213 87.682 90.213z" fill="#000000" data-fill-palette-color="accent"></path><path d="M86.35 63.447c-3.795 0.809-8.604 0.191-9.572 4.229-1.373 5.736-2.746 11.475-4.12 17.211C81.904 82.678 86.028 71.582 86.35 63.447z" fill="#000000" data-fill-palette-color="accent"></path><path d="M74.666 66.121c-9.148 1.953-8.956 4.611-12.879 13.18C68.007 78.711 73.811 71.941 74.666 66.121z" fill="#000000" data-fill-palette-color="accent"></path></svg></g></svg></g></svg></g></svg></g></svg></g><defs></defs></svg><rect width="395.52" height="131.68363684458566" fill="none" stroke="none" visibility="hidden"></rect></g></svg></g></svg>